<svg width="532" height="495" viewBox="0 0 532 495" fill="none" xmlns="http://www.w3.org/2000/svg">
<path opacity="0.4" fill-rule="evenodd" clip-rule="evenodd" d="M90.0754 465.025C74.2609 465.025 58.4464 461.017 44.8912 453.003C31.3359 444.988 20.0398 433.539 12.1326 419.8C4.22535 405.488 0.271729 390.031 0.271729 374.002C0.271729 357.973 4.22535 342.516 12.1326 328.777C20.0398 315.038 31.3359 303.588 44.8912 295.574C58.4464 287.559 74.2609 283.552 89.5106 283.552C105.325 283.552 121.14 287.559 134.695 295.574C148.25 303.588 159.546 315.038 167.453 328.777C175.361 342.516 179.314 357.973 179.314 374.002C179.314 390.031 175.361 405.488 167.453 419.8C159.546 433.539 148.25 444.988 134.695 453.003C121.14 461.017 105.325 465.025 90.0754 465.025Z" fill="white"/>
<path opacity="0.4" d="M499.322 326.33V198.646C499.322 160.298 480.737 127.372 448.262 108.197L340.147 44.3571C307.675 25.1817 270.502 25.1817 238.029 44.3571L129.913 108.197C97.4413 127.372 78.856 160.298 78.856 198.646V326.33C78.856 364.679 97.4413 397.603 129.913 416.778L238.029 480.62C270.502 499.794 307.675 499.794 340.147 480.62L448.262 416.778C480.737 397.603 499.322 364.679 499.322 326.33Z" fill="white"/>
<path opacity="0.4" fill-rule="evenodd" clip-rule="evenodd" d="M482.027 91.5469C482.027 91.5469 482.027 91.5469 482.592 91.5469C491.064 91.5469 499.535 93.8246 506.878 98.3799C514.22 102.366 520.433 109.199 524.951 116.601C529.469 124.004 531.728 132.545 531.728 141.086C531.728 150.197 529.469 158.738 524.951 166.141C520.433 173.543 514.22 179.807 506.878 184.362C499.535 188.917 491.064 191.195 482.592 191.195C473.555 191.195 465.083 188.917 457.741 184.362C450.399 179.807 444.186 173.543 439.668 166.141C435.15 158.738 432.89 150.197 432.89 141.086C432.89 132.545 435.15 124.004 439.668 116.601C444.186 109.199 450.399 102.366 457.741 98.3799C465.083 93.8246 473.555 91.5469 482.027 91.5469Z" fill="white"/>
<path opacity="0.4" fill-rule="evenodd" clip-rule="evenodd" d="M150.276 0C150.832 0 150.832 0 150.276 0C156.389 0 162.502 1.14771 167.503 4.59083C172.505 7.46011 176.951 12.0509 179.729 17.2156C182.508 22.3803 184.175 28.1189 184.175 34.4313C184.175 40.1698 182.508 46.4822 179.729 51.6469C176.951 56.8116 172.505 61.4024 167.503 64.2717C162.502 67.141 156.389 68.8625 150.832 68.8625C144.719 68.8625 139.162 67.141 134.16 64.2717C128.603 61.4024 124.713 56.8116 121.379 51.6469C118.6 46.4822 116.933 40.1698 116.933 34.4313C116.933 28.1189 118.6 22.3803 121.379 17.2156C124.713 12.0509 128.603 7.46011 134.16 4.59083C139.162 1.14771 144.719 0 150.276 0Z" fill="white"/>
</svg>
