<svg width="101" height="94" viewBox="0 0 101 94" fill="none" xmlns="http://www.w3.org/2000/svg">
<g clip-path="url(#clip0_2955_13366)">
<path fill-rule="evenodd" clip-rule="evenodd" d="M17.084 88.4252C14.0755 88.4252 11.067 87.6601 8.4883 86.1299C5.90957 84.5996 3.76064 82.4136 2.25638 79.7903C0.752128 77.0578 0 74.1066 0 71.0461C0 67.9857 0.752128 65.0345 2.25638 62.4112C3.76064 59.788 5.90957 57.6019 8.4883 56.0717C11.067 54.5415 14.0755 53.7764 16.9766 53.7764C19.9851 53.7764 22.9936 54.5415 25.5723 56.0717C28.1511 57.6019 30.3 59.788 31.8043 62.4112C33.3085 65.0345 34.0606 67.9857 34.0606 71.0461C34.0606 74.1066 33.3085 77.0578 31.8043 79.7903C30.3 82.4136 28.1511 84.5996 25.5723 86.1299C22.9936 87.6601 19.9851 88.4252 17.084 88.4252Z" fill="#420633"/>
<path d="M94.8321 61.9947V37.7663C94.8321 30.4897 91.2992 24.242 85.1261 20.6035L64.5744 8.48968C58.4019 4.8511 51.3358 4.8511 45.163 8.48968L24.6113 20.6035C18.4387 24.242 14.9059 30.4897 14.9059 37.7663V61.9947C14.9059 69.2716 18.4387 75.5189 24.6113 79.1575L45.163 91.2716C51.3358 94.9099 58.4019 94.9099 64.5744 91.2716L85.1261 79.1575C91.2992 75.5189 94.8321 69.2716 94.8321 61.9947Z" fill="url(#paint0_linear_2955_13366)"/>
<path fill-rule="evenodd" clip-rule="evenodd" d="M91.5447 17.3789C91.5447 17.3789 91.5447 17.3789 91.6521 17.3789C93.2638 17.3789 94.8755 17.8161 96.2723 18.6905C97.6692 19.4557 98.8511 20.7673 99.7107 22.1882C100.57 23.6091 101 25.2487 101 26.8882C101 28.637 100.57 30.2766 99.7107 31.6975C98.8511 33.1184 97.6692 34.3208 96.2723 35.1952C94.8755 36.0696 93.2638 36.5068 91.6521 36.5068C89.933 36.5068 88.3213 36.0696 86.9245 35.1952C85.5277 34.3208 84.3457 33.1184 83.4862 31.6975C82.6266 30.2766 82.1968 28.637 82.1968 26.8882C82.1968 25.2487 82.6266 23.6091 83.4862 22.1882C84.3457 20.7673 85.5277 19.4557 86.9245 18.6905C88.3213 17.8161 89.933 17.3789 91.5447 17.3789Z" fill="#420633"/>
<path fill-rule="evenodd" clip-rule="evenodd" d="M28.4734 0C28.5809 0 28.5809 0 28.4734 0C29.6553 0 30.8372 0.218605 31.8043 0.874419C32.7713 1.42093 33.6309 2.29535 34.1681 3.27907C34.7053 4.26279 35.0277 5.35581 35.0277 6.55814C35.0277 7.65116 34.7053 8.85349 34.1681 9.83721C33.6309 10.8209 32.7713 11.6953 31.8043 12.2419C30.8372 12.7884 29.6553 13.1163 28.5809 13.1163C27.3989 13.1163 26.3245 12.7884 25.3574 12.2419C24.283 11.6953 23.5309 10.8209 22.8862 9.83721C22.3489 8.85349 22.0266 7.65116 22.0266 6.55814C22.0266 5.35581 22.3489 4.26279 22.8862 3.27907C23.5309 2.29535 24.283 1.42093 25.3574 0.874419C26.3245 0.218605 27.3989 0 28.4734 0Z" fill="#420633"/>
<path fill-rule="evenodd" clip-rule="evenodd" d="M61.9968 39.6768V47.5466H64.0383L72.4191 37.7093C75.2128 34.4303 79.7255 38.3652 77.0394 41.4256L69.5181 50.3884L77.0394 59.3512C79.7255 62.521 75.2128 66.4559 72.4191 63.0675L64.5755 53.8861H61.9968V61.6466C61.9968 65.9093 55.8723 65.9093 55.8723 61.6466V39.6768C55.8723 35.5233 61.9968 35.5233 61.9968 39.6768ZM50.0702 42.3L45.45 46.6721C47.1691 47.1093 48.7809 48.0931 49.8553 49.4047C51.1447 50.9349 51.8968 52.9024 51.8968 55.0884C51.8968 57.9303 50.7149 60.3349 48.8883 62.0838C47.0617 63.8326 44.483 64.8163 41.4745 64.8163C39.6479 64.8163 37.9287 64.4884 36.317 63.614C35.0277 62.9582 32.5564 61.1 32.0191 59.4605C31.3745 56.9466 33.7383 54.8698 35.9947 55.8535C36.317 55.9628 36.6394 56.2907 36.9617 56.6186C37.6064 57.3838 38.2511 58.0396 39.0032 58.3675C39.7553 58.6954 40.4 58.914 41.2596 58.914C42.5489 58.914 43.6234 58.5861 44.3755 57.821C45.1277 57.1652 45.5574 56.2907 45.5574 55.0884C45.5574 53.9954 45.1277 53.121 44.2681 52.5745C43.516 52.0279 42.2266 51.7 40.5074 51.7H39.6479C36.6394 51.7 35.6723 48.3117 38.1436 46.1256L42.334 42.3H35.6723C31.9117 42.3 31.9117 36.507 35.6723 36.507H48.2436C51.1447 36.507 52.5415 40.114 50.0702 42.3Z" fill="white"/>
</g>
<defs>
<linearGradient id="paint0_linear_2955_13366" x1="983.675" y1="632.102" x2="1029.56" y2="557.306" gradientUnits="userSpaceOnUse">
<stop stop-color="#6E064E"/>
<stop offset="0.595" stop-color="#BE167A"/>
</linearGradient>
<clipPath id="clip0_2955_13366">
<rect width="101" height="94" fill="white"/>
</clipPath>
</defs>
</svg>
