<svg width="215" height="94" viewBox="0 0 215 94" fill="none" xmlns="http://www.w3.org/2000/svg">
<g clip-path="url(#clip0_2911_236)">
<path fill-rule="evenodd" clip-rule="evenodd" d="M103.096 37.7945C103.096 43.3525 107.394 46.201 111.622 46.201C115.146 46.201 118.881 44.3946 119.515 39.7398H115.357C114.934 41.4767 113.455 42.3798 111.622 42.3798C109.086 42.3798 107.465 40.2261 107.465 37.7945C107.465 35.0849 109.086 33.2091 111.622 33.2091C113.384 33.2091 114.653 33.9733 115.287 35.6407H119.444C118.81 31.2638 115.075 29.388 111.622 29.388C107.394 29.388 103.096 32.167 103.096 37.7945ZM185.121 36.3355L189.42 45.9925H193.578V45.3673L186.037 29.3185H184.205L176.735 45.3673V45.9925H180.893L185.121 36.3355ZM166.447 24.3857C166.518 25.2889 167.081 25.7058 168.068 25.7058C169.054 25.7058 169.689 25.4279 169.83 24.3857C170.675 24.4552 171.45 24.5247 172.296 24.5942C172.225 27.2342 170.746 28.6237 168.138 28.6237C165.531 28.6237 164.051 27.2342 163.981 24.5942C164.826 24.5247 165.601 24.4552 166.447 24.3857ZM161.867 45.9925H160.316V29.5269H164.685V37.586L173.142 29.4574H174.692V45.9925H170.252V37.9334L161.867 45.9925ZM151.508 40.2956H147.702L149.605 35.9881L151.508 40.2956ZM153.833 45.9925H157.991V45.3673L150.451 29.3185H148.689L141.219 45.3673V45.9925H145.377L146.363 43.9083H152.917L153.833 45.9925ZM130.86 36.6134L124.307 29.4574H122.756V45.9231H127.126V38.6282L130.649 42.3104H131.142L134.666 38.6282V45.9231H139.035V29.5269H137.484L130.86 36.6134Z" fill="#B3885B"/>
<path fill-rule="evenodd" clip-rule="evenodd" d="M90.9751 39.6706L88.861 34.4599L86.747 39.6706H90.9751ZM11.9092 39.6706L9.79515 34.4599L7.68109 39.6706H11.9092ZM62.3648 38.0032C62.3648 39.0453 62.7171 39.879 63.3514 40.4348C64.0561 40.9906 65.0426 41.4075 66.3815 41.5464V34.4599C64.9721 34.5989 63.9151 34.9463 63.2809 35.5715C62.6467 36.1274 62.3648 36.9611 62.3648 38.0032ZM70.6801 41.6159C72.0895 41.4769 73.1465 41.0601 73.7807 40.5043C74.4149 39.879 74.7673 39.1148 74.7673 38.0032C74.7673 36.9611 74.4149 36.1273 73.7807 35.5021C73.076 34.9463 72.0895 34.5294 70.7506 34.3905V41.6159H70.6801ZM48.6939 42.9359C49.469 42.9359 50.1032 42.7275 50.5965 42.3106C51.0898 41.8938 51.3012 41.2685 51.3012 40.5043C51.3012 39.1148 50.4556 38.3506 48.6939 38.3506H45.8047V42.8665H48.6939V42.9359ZM92.314 43.0749H85.3376L84.4215 45.3676C84.2101 45.9234 83.6463 46.2707 83.0826 46.2707H79.2773L86.1832 30.7778C86.3946 30.222 86.9584 29.9441 87.5221 29.9441H91.1865L98.5152 46.2707H94.6395C94.0052 46.2707 93.512 45.9234 93.3006 45.3676L92.314 43.0749ZM49.61 35.0852C51.6536 35.0852 53.2039 35.5021 54.3314 36.4053C55.4589 37.3084 55.9522 38.6285 55.9522 40.3653C55.9522 42.2412 55.3179 43.7002 54.12 44.6728C52.922 45.6455 51.1603 46.1318 48.9757 46.1318H41.1537V31.3336C41.1537 30.4999 41.7879 29.8746 42.6336 29.8746H45.8047V35.0852H49.61ZM13.3186 43.0749H6.27172L5.35563 45.3676C5.14422 45.9234 4.58047 46.2707 4.01672 46.2707H0.211411L7.11734 30.7778C7.32875 30.222 7.8925 29.9441 8.45625 29.9441H12.1206L19.4494 46.2707H15.5736C14.9394 46.2707 14.4461 45.9234 14.2347 45.3676L13.3186 43.0749ZM38.194 29.9441V46.2707H35.0229C34.1773 46.2707 33.5431 45.6455 33.5431 44.8118V33.5568H28.8217L28.7512 36.1968C28.6808 38.559 28.4694 40.4348 28.1875 41.8938C27.9056 43.3528 27.3419 44.4644 26.6372 45.2981C25.862 46.1318 24.8755 46.4792 23.4661 46.4792C23.2547 46.4792 22.9728 46.4792 22.7614 46.4097C21.9862 46.3402 21.4225 45.6455 21.4225 44.8812V42.4496H22.0567C22.1272 42.4496 22.1976 42.4496 22.1976 42.4496H22.3386C22.9023 42.4496 23.3251 42.1717 23.607 41.7548C23.9594 41.2685 24.1708 40.5738 24.3117 39.7401C24.4526 38.9064 24.5231 37.7253 24.5936 36.3358L24.805 31.1946C24.805 30.4304 25.5097 29.8051 26.2848 29.8051H38.194V29.9441ZM79.2773 38.0032C79.2773 40.1569 78.5726 41.8243 77.0928 43.0749C75.6129 44.3254 73.4989 45.0202 70.6801 45.1591V45.5065C70.6801 46.3402 70.0459 46.9655 69.2003 46.9655H66.3815V45.1591C63.5628 44.9507 61.4487 44.256 59.9689 43.0054C58.489 41.7548 57.7843 40.0874 57.7843 37.9337C57.7843 35.78 58.489 34.1126 59.9689 32.862C61.4487 31.6115 63.5628 30.9167 66.3815 30.7083V30.5693C66.3815 29.8051 67.0157 29.1104 67.8614 29.1104H70.6801V30.7778C73.4989 30.9862 75.6129 31.6809 77.0928 32.9315C78.5726 34.182 79.2773 35.8495 79.2773 38.0032Z" fill="#5E5755"/>
<path fill-rule="evenodd" clip-rule="evenodd" d="M6.13078 59.6794V62.25H5.07375V60.7215H0V53.8435H1.1275V59.6099H4.15765V53.8435H5.28515V59.6099H6.13078V59.6794ZM164.615 55.5109H165.672V58.9846L168.209 55.5109H169.195V60.7215H168.138V57.2478L165.601 60.7215H164.615V55.5109ZM158.273 55.5109H159.33V58.9846L161.867 55.5109H162.853V60.7215H161.796V57.2478L159.259 60.7215H158.273V55.5109ZM157.145 56.553H154.679V60.7215H153.622V55.5109H157.145V56.553ZM149.746 59.7489C150.169 59.7489 150.451 59.6099 150.733 59.332C151.014 59.0541 151.085 58.6373 151.085 58.1509C151.085 57.6646 150.944 57.2478 150.733 56.9699C150.451 56.692 150.169 56.553 149.746 56.553C149.323 56.553 149.041 56.692 148.759 56.9699C148.478 57.2478 148.407 57.6646 148.407 58.1509C148.407 58.6373 148.548 59.0541 148.759 59.332C149.041 59.6099 149.394 59.7489 149.746 59.7489ZM149.746 60.791C149.253 60.791 148.9 60.652 148.478 60.4436C148.125 60.2352 147.843 59.8878 147.632 59.471C147.421 59.0541 147.35 58.5678 147.35 58.0815C147.35 57.5951 147.421 57.1088 147.632 56.692C147.843 56.2751 148.125 55.9972 148.478 55.7193C148.83 55.5109 149.253 55.3719 149.746 55.3719C150.239 55.3719 150.662 55.5109 151.014 55.7193C151.367 55.9277 151.649 56.2751 151.86 56.692C152.071 57.1088 152.142 57.5257 152.142 58.0815C152.142 58.5678 152.071 59.0541 151.86 59.471C151.649 59.8878 151.367 60.1657 151.014 60.4436C150.662 60.7215 150.239 60.791 149.746 60.791ZM145.941 55.5109V60.7215H144.884V56.553H143.192L143.122 57.5951C143.122 58.2899 143.051 58.8457 142.981 59.332C142.911 59.8183 142.77 60.1657 142.558 60.4436C142.347 60.7215 142.065 60.8605 141.783 60.8605C141.642 60.8605 141.431 60.791 141.219 60.7215L141.29 59.6794C141.36 59.6794 141.431 59.6794 141.501 59.6794C141.713 59.6794 141.853 59.6099 141.994 59.4015C142.135 59.1931 142.206 58.9846 142.206 58.7067C142.206 58.4288 142.276 58.012 142.276 57.5257L142.347 55.5109H145.941ZM137.978 59.7489C138.401 59.7489 138.682 59.6099 138.964 59.332C139.246 59.0541 139.317 58.6373 139.317 58.1509C139.317 57.6646 139.176 57.2478 138.964 56.9699C138.682 56.692 138.401 56.553 137.978 56.553C137.555 56.553 137.273 56.692 136.991 56.9699C136.709 57.2478 136.639 57.6646 136.639 58.1509C136.639 58.6373 136.78 59.0541 136.991 59.332C137.273 59.6099 137.555 59.7489 137.978 59.7489ZM137.978 60.791C137.484 60.791 137.132 60.652 136.709 60.4436C136.357 60.2352 136.075 59.8878 135.864 59.471C135.652 59.0541 135.582 58.5678 135.582 58.0815C135.582 57.5951 135.652 57.1088 135.864 56.692C136.075 56.2751 136.357 55.9972 136.709 55.7193C137.062 55.5109 137.484 55.3719 137.978 55.3719C138.471 55.3719 138.894 55.5109 139.246 55.7193C139.598 55.9277 139.88 56.2751 140.092 56.692C140.303 57.1088 140.374 57.5257 140.374 58.0815C140.374 58.5678 140.303 59.0541 140.092 59.471C139.88 59.8878 139.598 60.1657 139.246 60.4436C138.823 60.7215 138.401 60.791 137.978 60.791ZM134.807 56.553H133.186V60.7215H132.129V56.553H130.508V55.5109H134.807V56.553ZM127.266 59.8878C127.548 59.8878 127.76 59.8183 127.971 59.6794C128.183 59.5404 128.323 59.332 128.394 59.0541V58.4288H127.266C126.632 58.4288 126.35 58.6373 126.35 59.1236C126.35 59.332 126.421 59.5404 126.562 59.6794C126.773 59.8183 126.985 59.8878 127.266 59.8878ZM127.407 55.4414C128.112 55.4414 128.605 55.6498 128.958 55.9972C129.31 56.3446 129.521 56.9004 129.521 57.6646V60.7215H128.535V60.0962C128.394 60.3047 128.183 60.5131 127.971 60.652C127.76 60.791 127.407 60.8605 127.126 60.8605C126.773 60.8605 126.491 60.791 126.209 60.652C125.928 60.5131 125.787 60.3047 125.646 60.0962C125.505 59.8878 125.434 59.6099 125.434 59.2625C125.434 58.7762 125.575 58.4288 125.857 58.1509C126.139 57.873 126.632 57.7341 127.266 57.7341H128.464V57.6646C128.464 57.3172 128.394 57.0393 128.183 56.8309C127.971 56.6225 127.689 56.553 127.337 56.553C127.055 56.553 126.844 56.6225 126.562 56.692C126.28 56.7614 126.068 56.9004 125.928 57.0393L125.505 56.1362C125.716 55.9277 125.998 55.7888 126.35 55.6498C126.703 55.5109 127.055 55.4414 127.407 55.4414ZM122.968 60.7215V57.2478L121.418 60.1657H120.924L119.374 57.2478V60.7215H118.387V55.5109H119.515L121.136 58.7762L122.827 55.5109H123.813V60.7215H122.968ZM114.653 59.7489C115.075 59.7489 115.357 59.6099 115.639 59.332C115.921 59.0541 115.991 58.6373 115.991 58.1509C115.991 57.6646 115.851 57.2478 115.639 56.9699C115.357 56.692 115.075 56.553 114.653 56.553C114.23 56.553 113.948 56.692 113.666 56.9699C113.384 57.2478 113.314 57.6646 113.314 58.1509C113.314 58.6373 113.455 59.0541 113.666 59.332C113.877 59.6099 114.23 59.7489 114.653 59.7489ZM114.653 60.791C114.159 60.791 113.807 60.652 113.384 60.4436C113.032 60.2352 112.75 59.8878 112.539 59.471C112.327 59.0541 112.257 58.5678 112.257 58.0815C112.257 57.5951 112.327 57.1088 112.539 56.692C112.75 56.2751 113.032 55.9972 113.384 55.7193C113.736 55.5109 114.159 55.3719 114.653 55.3719C115.146 55.3719 115.569 55.5109 115.921 55.7193C116.273 55.9277 116.555 56.2751 116.767 56.692C116.978 57.1088 117.049 57.5257 117.049 58.0815C117.049 58.5678 116.978 59.0541 116.767 59.471C116.555 59.8878 116.273 60.1657 115.921 60.4436C115.498 60.7215 115.075 60.791 114.653 60.791ZM111.481 56.553H109.861V60.7215H108.804V56.553H107.183V55.5109H111.481V56.553ZM104.576 60.791C104.082 60.791 103.659 60.652 103.307 60.4436C102.955 60.2352 102.602 59.8878 102.391 59.471C102.18 59.0541 102.109 58.5678 102.109 58.0815C102.109 57.5951 102.18 57.1088 102.391 56.692C102.602 56.2751 102.884 55.9972 103.237 55.7193C103.589 55.5109 104.012 55.3719 104.505 55.3719C104.928 55.3719 105.351 55.5109 105.703 55.7193C106.055 55.9277 106.267 56.2056 106.478 56.6225L105.633 57.1783C105.492 56.9699 105.351 56.7614 105.139 56.6225C104.928 56.4835 104.716 56.4141 104.505 56.4141C104.082 56.4141 103.8 56.553 103.519 56.8309C103.237 57.1088 103.096 57.5257 103.096 58.012C103.096 58.4983 103.237 58.9152 103.519 59.1931C103.8 59.471 104.082 59.6099 104.505 59.6099C104.716 59.6099 104.928 59.5404 105.139 59.4015C105.351 59.2625 105.492 59.1236 105.633 58.8457L106.478 59.4015C106.267 59.8183 106.055 60.0962 105.703 60.3047C105.421 60.7215 105.069 60.791 104.576 60.791ZM95.626 54.8856C95.1327 54.8856 94.7804 54.7466 94.569 54.5382C94.3576 54.2603 94.2166 53.9129 94.2166 53.4961H94.9213C94.9213 53.7045 94.9918 53.9129 95.1327 54.0519C95.2737 54.1908 95.4146 54.2603 95.626 54.2603C95.8374 54.2603 96.0488 54.1908 96.1193 54.0519C96.2602 53.9129 96.3307 53.7045 96.3307 53.4961H97.0354C97.0354 53.9824 96.8945 54.3298 96.683 54.5382C96.4716 54.7466 96.1193 54.8856 95.626 54.8856ZM93.4415 55.5109H94.4985V58.9846L97.0354 55.5109H98.022V60.7215H96.9649V57.2478L94.428 60.7215H93.4415V55.5109ZM89.5657 59.7489C89.9885 59.7489 90.2704 59.6099 90.5523 59.332C90.8341 59.0541 90.9046 58.6373 90.9046 58.1509C90.9046 57.6646 90.7637 57.2478 90.5523 56.9699C90.2704 56.692 89.9885 56.553 89.5657 56.553C89.1429 56.553 88.861 56.692 88.5791 56.9699C88.2973 57.2478 88.2268 57.6646 88.2268 58.1509C88.2268 58.6373 88.3677 59.0541 88.5791 59.332C88.861 59.6099 89.2134 59.7489 89.5657 59.7489ZM89.5657 60.791C89.0724 60.791 88.7201 60.652 88.2973 60.4436C87.9449 60.2352 87.6631 59.8878 87.4516 59.471C87.2402 59.0541 87.1698 58.5678 87.1698 58.0815C87.1698 57.5951 87.2402 57.1088 87.4516 56.692C87.6631 56.2751 87.9449 55.9972 88.2973 55.7193C88.6496 55.5109 89.0724 55.3719 89.5657 55.3719C90.059 55.3719 90.4818 55.5109 90.8341 55.7193C91.1865 55.9277 91.4684 56.2751 91.6798 56.692C91.8912 57.1088 91.9616 57.5257 91.9616 58.0815C91.9616 58.5678 91.8912 59.0541 91.6798 59.471C91.4684 59.8878 91.1865 60.1657 90.8341 60.4436C90.4818 60.7215 90.059 60.791 89.5657 60.791ZM81.3209 55.5109H82.3779V57.6646H84.7034V55.5109H85.7604V60.7215H84.7034V58.6373H82.3779V60.7215H81.3209V55.5109ZM75.1196 55.5109H76.1767V57.6646H78.5021V55.5109H79.5592V60.7215H78.5021V58.6373H76.1767V60.7215H75.1196V55.5109ZM71.2439 56.4141C70.8915 56.4141 70.6096 56.553 70.3982 56.7614C70.1868 56.9699 70.0459 57.3172 69.9754 57.6646H72.5828C72.5123 57.3172 72.3714 56.9699 72.1599 56.7614C71.8781 56.553 71.5962 56.4141 71.2439 56.4141ZM73.5693 58.1509C73.5693 58.2204 73.5693 58.3594 73.5693 58.4983H69.9754C70.0459 58.9152 70.1868 59.1931 70.4687 59.4015C70.7506 59.6099 71.0324 59.7489 71.4553 59.7489C71.9485 59.7489 72.3713 59.5404 72.7237 59.1931L73.2874 59.9573C73.076 60.2352 72.7942 60.4436 72.5123 60.5826C72.2304 60.7215 71.8781 60.791 71.4553 60.791C70.962 60.791 70.5392 60.652 70.1163 60.4436C69.764 60.2352 69.4117 59.8878 69.2003 59.471C68.9888 59.0541 68.9184 58.5678 68.9184 58.0815C68.9184 57.5951 68.9888 57.1088 69.2003 56.692C69.4117 56.2751 69.6935 55.9972 70.0459 55.7193C70.3982 55.5109 70.821 55.3719 71.2439 55.3719C71.6667 55.3719 72.0895 55.5109 72.4418 55.7193C72.7942 55.9277 73.076 56.2751 73.2874 56.692C73.4988 57.1783 73.5693 57.5951 73.5693 58.1509ZM66.5224 60.7215V57.2478L64.9721 60.1657H64.4789L62.9285 57.2478V60.7215H62.0125V55.5109H63.1399L64.7607 58.7762L66.452 55.5109H67.4385V60.7215H66.5224ZM58.2071 56.4141C57.8548 56.4141 57.5729 56.553 57.3615 56.7614C57.1501 56.9699 57.0092 57.3172 56.9387 57.6646H59.546C59.4756 57.3172 59.3346 56.9699 59.1232 56.7614C58.8414 56.553 58.5595 56.4141 58.2071 56.4141ZM60.5326 58.1509C60.5326 58.2204 60.5326 58.3594 60.5326 58.4983H56.9387C57.0092 58.9152 57.1501 59.1931 57.432 59.4015C57.7139 59.6099 57.9957 59.7489 58.4185 59.7489C58.9118 59.7489 59.3346 59.5404 59.687 59.1931L60.2507 59.9573C60.0393 60.2352 59.7575 60.4436 59.4756 60.5826C59.1937 60.7215 58.8414 60.791 58.4185 60.791C57.9253 60.791 57.5025 60.652 57.0796 60.4436C56.7273 60.2352 56.375 59.8878 56.1635 59.471C55.9521 59.0541 55.8817 58.5678 55.8817 58.0815C55.8817 57.5951 55.9521 57.1088 56.1635 56.692C56.375 56.2751 56.6568 55.9972 57.0092 55.7193C57.3615 55.5109 57.7843 55.3719 58.2071 55.3719C58.63 55.3719 59.0528 55.5109 59.4051 55.7193C59.7575 55.9277 60.0393 56.2751 60.2507 56.692C60.3917 57.1783 60.5326 57.5951 60.5326 58.1509ZM52.3582 59.7489C52.7811 59.7489 53.0629 59.6099 53.3448 59.332C53.6267 59.0541 53.6971 58.6373 53.6971 58.1509C53.6971 57.6646 53.5562 57.2478 53.3448 56.9699C53.0629 56.692 52.7811 56.553 52.3582 56.553C52.0764 56.553 51.865 56.6225 51.6536 56.7614C51.4422 56.9004 51.3012 57.1088 51.1603 57.3172C51.0193 57.5951 50.9489 57.873 50.9489 58.1509C50.9489 58.4983 51.0193 58.7762 51.1603 58.9846C51.3012 59.2625 51.4422 59.4015 51.6536 59.5404C51.9354 59.6794 52.1468 59.7489 52.3582 59.7489ZM52.4992 55.4414C52.922 55.4414 53.3448 55.5804 53.6971 55.7888C54.0495 55.9972 54.3314 56.3446 54.5428 56.7614C54.7542 57.1783 54.8246 57.6646 54.8246 58.1509C54.8246 58.6373 54.7542 59.1236 54.5428 59.5404C54.3314 59.9573 54.0495 60.2352 53.6971 60.5131C53.3448 60.7215 52.922 60.8605 52.4992 60.8605C51.865 60.8605 51.3717 60.652 51.0193 60.1657V62.6668H49.9623V55.5109H50.9489V56.2056C51.1603 55.9277 51.3717 55.7888 51.5831 55.6498C51.9354 55.5109 52.2173 55.4414 52.4992 55.4414ZM46.5798 59.8183C47.1436 59.8183 47.4959 59.6099 47.4959 59.1931C47.4959 58.9846 47.4254 58.7762 47.2845 58.7067C47.1436 58.5678 46.9321 58.5678 46.6503 58.5678H45.3818V59.8878H46.5798V59.8183ZM45.3114 57.6646H46.4389C47.0026 57.6646 47.2845 57.4562 47.2845 57.0393C47.2845 56.6225 47.0026 56.4141 46.4389 56.4141H45.3114V57.6646ZM47.6368 58.012C48.2006 58.2204 48.4825 58.6373 48.4825 59.2625C48.4825 59.7489 48.3415 60.0962 47.9892 60.3741C47.7073 60.652 47.214 60.7215 46.6503 60.7215H44.3248V55.5109H46.5798C47.1436 55.5109 47.5664 55.6498 47.9187 55.8583C48.2006 56.0667 48.412 56.4141 48.412 56.8309C48.412 57.1088 48.3415 57.3172 48.2006 57.5257C48.0597 57.7341 47.8482 57.873 47.6368 58.012ZM40.449 59.7489C40.8718 59.7489 41.1537 59.6099 41.4356 59.332C41.7175 59.0541 41.7879 58.6373 41.7879 58.1509C41.7879 57.6646 41.647 57.2478 41.4356 56.9699C41.2242 56.692 40.8718 56.553 40.449 56.553C40.0262 56.553 39.7443 56.692 39.4625 56.9699C39.1806 57.2478 39.1101 57.6646 39.1101 58.1509C39.1101 58.6373 39.2511 59.0541 39.4625 59.332C39.7443 59.6099 40.0967 59.7489 40.449 59.7489ZM40.449 60.791C39.9557 60.791 39.6034 60.652 39.1806 60.4436C38.8283 60.2352 38.5464 59.8878 38.335 59.471C38.1236 59.0541 38.0531 58.5678 38.0531 58.0815C38.0531 57.5951 38.1236 57.1088 38.335 56.692C38.5464 56.2751 38.8283 55.9972 39.1806 55.7193C39.5329 55.5109 39.9557 55.3719 40.449 55.3719C40.9423 55.3719 41.3651 55.5109 41.7175 55.7193C42.0698 55.9277 42.3517 56.2751 42.5631 56.692C42.7745 57.1088 42.845 57.5257 42.845 58.0815C42.845 58.5678 42.7745 59.0541 42.5631 59.471C42.3517 59.8878 42.0698 60.1657 41.7175 60.4436C41.3651 60.7215 40.9423 60.791 40.449 60.791ZM35.2343 60.791C34.7411 60.791 34.3183 60.652 33.9659 60.4436C33.6136 60.2352 33.2612 59.8878 33.0498 59.471C32.8384 59.0541 32.6975 58.5678 32.6975 58.0815C32.6975 57.5951 32.8384 57.1088 33.0498 56.692C33.2612 56.2751 33.5431 55.9972 33.8954 55.7193C34.2478 55.5109 34.6706 55.3719 35.1639 55.3719C35.5867 55.3719 36.0095 55.5109 36.3618 55.7193C36.7142 55.9277 36.9256 56.2056 37.137 56.6225L36.2914 57.1783C36.1504 56.9699 36.0095 56.7614 35.7981 56.6225C35.5867 56.4835 35.3753 56.4141 35.1639 56.4141C34.7411 56.4141 34.4592 56.553 34.1773 56.8309C33.8954 57.1088 33.7545 57.5257 33.7545 58.012C33.7545 58.4983 33.8954 58.9152 34.1773 59.1931C34.4592 59.471 34.7411 59.6099 35.1639 59.6099C35.3753 59.6099 35.5867 59.5404 35.7981 59.4015C36.0095 59.2625 36.1504 59.1236 36.2914 58.8457L37.137 59.4015C36.9256 59.8183 36.7142 60.0962 36.3618 60.3047C36.0095 60.7215 35.6572 60.791 35.2343 60.791ZM26.5667 59.7489C26.9895 59.7489 27.2714 59.6099 27.5533 59.332C27.8351 59.0541 27.9056 58.6373 27.9056 58.1509C27.9056 57.6646 27.7647 57.2478 27.5533 56.9699C27.2714 56.692 26.9895 56.553 26.5667 56.553C26.2848 56.553 26.0734 56.6225 25.862 56.7614C25.6506 56.9004 25.5097 57.1088 25.3687 57.3172C25.2278 57.5951 25.1573 57.873 25.1573 58.1509C25.1573 58.4983 25.2278 58.7762 25.3687 58.9846C25.5097 59.2625 25.6506 59.4015 25.862 59.5404C26.0734 59.6794 26.2848 59.7489 26.5667 59.7489ZM26.7076 55.4414C27.1304 55.4414 27.5533 55.5804 27.9056 55.7888C28.2579 55.9972 28.5398 56.3446 28.7512 56.7614C28.9626 57.1783 29.0331 57.6646 29.0331 58.1509C29.0331 58.6373 28.9626 59.1236 28.7512 59.5404C28.5398 59.9573 28.2579 60.2352 27.9056 60.5131C27.5533 60.7215 27.1304 60.8605 26.7076 60.8605C26.0734 60.8605 25.5801 60.652 25.2278 60.1657V62.6668H24.1708V55.5109H25.1573V56.2056C25.3687 55.9277 25.5801 55.7888 25.7915 55.6498C26.0734 55.5109 26.3553 55.4414 26.7076 55.4414ZM23.0433 56.553H21.4225V60.7215H20.3655V56.553H18.7447V55.5109H23.0433V56.553ZM13.1776 55.5109H14.2347V57.6646H16.5601V55.5109H17.6172V60.7215H16.5601V58.6373H14.2347V60.7215H13.1776V55.5109ZM9.30187 56.4141C8.94952 56.4141 8.66765 56.553 8.45624 56.7614C8.24484 56.9699 8.1039 57.3172 8.03343 57.6646H10.6408C10.5703 57.3172 10.4294 56.9699 10.218 56.7614C10.0066 56.553 9.65421 56.4141 9.30187 56.4141ZM11.6273 58.1509C11.6273 58.2204 11.6273 58.3594 11.6273 58.4983H8.03343C8.1039 58.9152 8.24484 59.1931 8.52671 59.4015C8.80859 59.6099 9.09046 59.7489 9.51327 59.7489C10.0066 59.7489 10.4294 59.5404 10.7817 59.1931L11.3455 59.9573C11.1341 60.2352 10.8522 60.4436 10.5703 60.5826C10.2884 60.7215 9.93609 60.791 9.51327 60.791C9.01999 60.791 8.59718 60.652 8.17437 60.4436C7.82203 60.2352 7.46968 59.8878 7.25828 59.471C7.04687 59.0541 6.9764 58.5678 6.9764 58.0815C6.9764 57.5951 7.04687 57.1088 7.25828 56.692C7.46968 56.2751 7.75156 55.9972 8.1039 55.7193C8.45624 55.5109 8.87906 55.3719 9.30187 55.3719C9.72468 55.3719 10.1475 55.5109 10.4998 55.7193C10.8522 55.9277 11.1341 56.2751 11.3455 56.692C11.5569 57.1783 11.6273 57.5951 11.6273 58.1509Z" fill="#5E5755"/>
<path fill-rule="evenodd" clip-rule="evenodd" d="M197.735 90.8043C196.185 75.1029 191.675 59.5404 183.571 57.3867C180.4 56.9698 178.286 60.2352 176.172 67.9469C174.269 41.9632 201.963 46.8959 197.735 90.8043ZM181.386 5.76657C197.806 3.26547 205.487 3.12651 208.094 9.17086C211.97 18.3416 199.356 31.6114 199.356 42.6579C198.51 57.8035 211.688 77.3261 197.876 94.0001C219.933 79.063 200.413 54.0519 209.292 33.5567C214.718 21.1206 218.312 9.72666 210.56 3.26547C201.329 -4.30733 188.715 3.33494 181.386 5.76657ZM188.574 8.82348C175.115 20.3564 162.783 1.66753 154.397 8.82348C149.746 12.7836 153.41 20.2174 154.397 26.9565C148.478 17.5774 144.39 6.87818 149.957 2.22334C160.88 -6.87792 175.185 15.2847 188.574 8.82348Z" fill="#B3885B"/>
</g>
<defs>
<clipPath id="clip0_2911_236">
<rect width="215" height="94" fill="white"/>
</clipPath>
</defs>
</svg>
