<svg width="53" height="54" viewBox="0 0 53 54" fill="none" xmlns="http://www.w3.org/2000/svg">
<path d="M49.5515 0C48.2378 0 46.5136 0.16476 44.543 0.494279C42.4493 0.823799 41.0124 1.2357 40.1503 1.68879C39.2881 2.14188 37.9744 3.29519 36.127 5.23112C34.3617 7.08467 32.1038 10.0092 29.3943 13.9222C26.7258 17.794 24.3857 21.5423 22.3741 25.1259C20.6088 28.3387 18.7614 31.8398 16.9551 35.5881C15.6824 33.9817 14.3277 32.6636 12.9729 31.7162C11.2076 30.5217 9.56545 29.9039 8.00542 29.9039C6.40434 29.9039 4.68009 30.6041 2.87374 31.9634C0.985283 33.405 0 35.0114 0 36.7826C0 38.1007 0.821069 39.6659 2.50426 41.5606C4.96747 44.2792 6.97909 46.7918 8.41596 49.0572C9.48335 50.746 10.2634 51.8169 10.7149 52.3112C11.2076 52.8879 11.8644 53.2998 12.6445 53.5881C13.3834 53.8352 14.615 54 16.3803 54C18.8025 54 20.4857 53.7529 21.471 53.2174C22.4562 52.6819 23.2362 51.8993 23.7699 50.9519C24.2626 50.087 25.0426 48.3158 26.151 45.5973C28.8606 38.7185 32.5964 31.5927 37.1534 24.3432C41.7103 17.0938 46.1851 11.4508 50.4547 7.49657C51.481 6.5492 52.1379 5.84897 52.4663 5.35469C52.8358 4.77803 53 4.11899 53 3.37757C53 2.43021 52.6716 1.6476 52.0147 0.988558C51.3989 0.329519 50.5778 0 49.5515 0Z" fill="#E41280"/>
</svg>
