<svg width="244" height="100" viewBox="0 0 244 100" fill="none" xmlns="http://www.w3.org/2000/svg">
<g clip-path="url(#clip0_2911_140)">
<path fill-rule="evenodd" clip-rule="evenodd" d="M95.5147 38.9749C95.5147 41.597 94.6758 43.6233 92.8782 45.1727C91.0806 46.7222 88.5639 47.5565 85.0884 47.7949V48.2716C85.0884 49.2252 84.2495 50.0595 83.2908 50.0595H79.9352V47.9141C76.5796 47.6757 73.943 46.8414 72.1454 45.2919C70.3477 43.7424 69.5089 41.7162 69.5089 39.094C69.5089 36.4719 70.3477 34.4457 72.1454 32.8962C73.943 31.3467 76.4597 30.5124 79.9352 30.274V30.0356C79.9352 29.0821 80.7741 28.2478 81.7328 28.2478H85.0884V30.274C88.444 30.5124 91.0806 31.3467 92.8782 32.8962C94.6758 34.3265 95.5147 36.3527 95.5147 38.9749ZM45.8998 29.0821V48.9868H42.0648C41.1061 48.9868 40.2672 48.1524 40.2672 47.1989V33.6113H34.5147L34.3949 36.8294C34.2751 39.69 34.0354 41.9546 33.6758 43.7424C33.3163 45.5303 32.7171 46.9606 31.7584 47.9141C30.9195 48.8676 29.6012 49.3443 27.9234 49.3443C27.6837 49.3443 27.3242 49.3443 27.0845 49.3443C26.1257 49.2252 25.5265 48.3908 25.5265 47.4373V44.4576H26.3654C26.4853 44.4576 26.4853 44.4576 26.6051 44.4576H26.725C27.444 44.4576 27.9234 44.1 28.2829 43.6232C28.6424 43.0273 29.002 42.193 29.1218 41.1203C29.2417 40.0476 29.3615 38.7365 29.4813 37.0678L29.721 30.87C29.721 29.9165 30.5599 29.2013 31.5187 29.2013H45.8998V29.0821ZM15.8193 45.1727H7.31041L6.23183 47.9141C5.99214 48.6292 5.27309 48.9868 4.55403 48.9868H0L8.389 30.1548C8.62868 29.4397 9.34774 29.0821 10.0668 29.0821H14.3811L23.2495 48.9868H18.5756C17.8566 48.9868 17.2574 48.51 16.8978 47.9141L15.8193 45.1727ZM59.6817 35.3992C62.1984 35.3992 63.9961 35.9951 65.3143 37.0678C66.6326 38.1405 67.3517 39.8092 67.3517 41.9546C67.3517 44.2192 66.6326 46.007 65.0747 47.1989C63.6365 48.3908 61.4794 48.9868 58.8428 48.9868H49.3753V30.87C49.3753 29.9165 50.2141 29.0821 51.1729 29.0821H55.0079V35.3992H59.6817ZM111.334 45.1727L112.413 47.9141C112.652 48.6292 113.371 48.9868 114.09 48.9868H118.764L109.896 29.0821H105.462C104.743 29.0821 104.143 29.4397 103.784 30.1548L95.3949 48.9868H99.9489C100.668 48.9868 101.267 48.51 101.627 47.9141L102.705 45.1727H111.334ZM58.6031 44.9343C59.5619 44.9343 60.2809 44.696 60.8802 44.2192C61.4794 43.7424 61.7191 43.0273 61.7191 42.0738C61.7191 40.4051 60.6405 39.4516 58.6031 39.4516H55.1277V44.9343H58.6031ZM85.2083 43.3849C86.8861 43.1465 88.2043 42.7889 88.9234 42.0738C89.7623 41.3586 90.1218 40.2859 90.1218 38.9749C90.1218 37.6638 89.7623 36.7103 88.9234 35.9951C88.0845 35.28 86.8861 34.8032 85.2083 34.684V43.3849ZM75.0216 38.9749C75.0216 40.2859 75.3811 41.2395 76.22 41.9546C77.0589 42.6697 78.2574 43.1465 79.9352 43.2657V34.5648C78.2574 34.8032 76.9391 35.1608 76.22 35.8759C75.501 36.5911 75.0216 37.6638 75.0216 38.9749ZM14.1415 41.0011L11.6248 34.5648L9.10806 40.8819H14.1415V41.0011ZM109.656 41.0011H104.503L107.02 34.684L109.656 41.0011Z" fill="#424242"/>
<path fill-rule="evenodd" clip-rule="evenodd" d="M4.91356 63.7664V65.7926H4.07466V64.6007H0V58.9988H0.8389V63.7664H3.3556V58.9988H4.1945V63.7664H4.91356Z" fill="#424242"/>
<path fill-rule="evenodd" clip-rule="evenodd" d="M9.58743 63.7664V64.6007H5.99214V58.9988H9.58743V59.9523H6.95088V61.3826H9.2279V62.2169H6.95088V63.7664H9.58743Z" fill="#424242"/>
<path fill-rule="evenodd" clip-rule="evenodd" d="M15.22 58.9988V64.6007H14.2613V62.2169H11.8644V64.6007H10.9057V58.9988H11.8644V61.3826H14.2613V58.9988H15.22Z" fill="#424242"/>
<path fill-rule="evenodd" clip-rule="evenodd" d="M20.3733 59.9523H18.6955V64.6007H17.8566V59.9523H16.2986V58.9988H20.3733V59.9523Z" fill="#424242"/>
<path fill-rule="evenodd" clip-rule="evenodd" d="M23.3693 58.9988C23.7289 58.9988 24.2082 59.118 24.4479 59.2372C24.8075 59.3563 25.0471 59.5947 25.167 59.9523C25.2868 60.1907 25.4067 60.5482 25.4067 61.025C25.4067 61.3826 25.2868 61.7401 25.167 62.0977C25.0471 62.4553 24.8075 62.5745 24.4479 62.8128C24.0884 62.932 23.7289 63.0512 23.3693 63.0512H22.2908V64.6007H21.4519V58.9988H23.3693ZM23.3693 62.0977C23.7289 62.0977 24.0884 61.9785 24.2082 61.8593C24.4479 61.621 24.5678 61.3826 24.5678 61.025C24.5678 60.6674 24.4479 60.4291 24.2082 60.1907C23.9686 59.9523 23.7289 59.9523 23.3693 59.9523H22.2908V62.2169H23.3693V62.0977Z" fill="#424242"/>
<path fill-rule="evenodd" clip-rule="evenodd" d="M33.0766 62.2169H32.2377V64.6007H31.279V62.2169H30.4401L29.2417 64.6007H28.2829L29.721 61.7401L28.2829 58.9988H29.2417L30.4401 61.3826H31.279V58.9988H32.2377V61.3826H33.0766L34.2751 58.9988H35.114L33.7957 61.7401L35.2338 64.6007H34.2751L33.0766 62.2169Z" fill="#424242"/>
<path fill-rule="evenodd" clip-rule="evenodd" d="M39.9077 63.7664V64.6007H36.3124V58.9988H39.9077V59.9523H37.2711V61.3826H39.5481V62.2169H37.2711V63.7664H39.9077Z" fill="#424242"/>
<path fill-rule="evenodd" clip-rule="evenodd" d="M45.5403 58.9988V64.6007H44.5815V62.2169H42.1847V64.6007H41.2259V58.9988H42.1847V61.3826H44.5815V58.9988H45.5403Z" fill="#424242"/>
<path fill-rule="evenodd" clip-rule="evenodd" d="M49.3753 64.7199C48.8959 64.7199 48.4165 64.6007 48.057 64.3623C47.6974 64.1239 47.3379 63.7664 47.0982 63.2896C46.8586 62.8128 46.7387 62.3361 46.7387 61.8593C46.7387 61.2634 46.8586 60.7866 47.0982 60.4291C47.3379 59.9523 47.5776 59.5947 48.057 59.3563C48.4165 59.118 48.8959 58.9988 49.3753 58.9988C49.7348 58.9988 50.0943 59.118 50.4538 59.2372C50.8134 59.3563 51.053 59.5947 51.2927 59.9523L50.6935 60.5482C50.334 60.0715 49.8546 59.9523 49.3753 59.9523C49.0157 59.9523 48.776 60.0715 48.5364 60.1907C48.2967 60.3099 48.057 60.5482 47.9371 60.9058C47.8173 61.1442 47.6975 61.5018 47.6975 61.8593C47.6975 62.2169 47.8173 62.5745 47.9371 62.8128C48.057 63.0512 48.2967 63.2896 48.5364 63.528C48.776 63.6472 49.1356 63.7664 49.3753 63.7664C49.8546 63.7664 50.334 63.528 50.6935 63.0512L51.2927 63.6472C51.053 64.0047 50.8134 64.1239 50.4538 64.3623C50.0943 64.6007 49.7348 64.7199 49.3753 64.7199Z" fill="#424242"/>
<path fill-rule="evenodd" clip-rule="evenodd" d="M54.1689 62.2169H53.33V64.6007H52.3713V58.9988H53.33V61.3826H54.1689L55.6071 58.9988H56.5658L54.888 61.7401L56.5658 64.6007H55.6071L54.1689 62.2169Z" fill="#424242"/>
<path fill-rule="evenodd" clip-rule="evenodd" d="M59.9214 64.7199C59.442 64.7199 58.9627 64.6007 58.6031 64.3623C58.2436 64.1239 57.8841 63.7664 57.6444 63.2896C57.4047 62.8128 57.2849 62.3361 57.2849 61.8593C57.2849 61.2634 57.4047 60.7866 57.6444 60.4291C57.8841 59.9523 58.1238 59.5947 58.6031 59.3563C58.9627 59.118 59.442 58.9988 59.9214 58.9988C60.4008 58.9988 60.8802 59.118 61.2397 59.3563C61.5992 59.5947 61.9587 59.9523 62.1984 60.4291C62.4381 60.9058 62.558 61.3826 62.558 61.8593C62.558 62.4553 62.4381 62.932 62.1984 63.2896C61.9587 63.7664 61.719 64.0047 61.2397 64.3623C60.8802 64.6007 60.4008 64.7199 59.9214 64.7199ZM59.9214 63.7664C60.2809 63.7664 60.5206 63.6472 60.7603 63.528C61 63.4088 61.2397 63.1704 61.3595 62.8128C61.4794 62.4553 61.5992 62.2169 61.5992 61.8593C61.5992 61.5018 61.4794 61.1442 61.3595 60.9058C61.2397 60.5482 61 60.4291 60.7603 60.1907C60.5206 60.0715 60.1611 59.9523 59.9214 59.9523C59.5619 59.9523 59.3222 60.0715 59.0825 60.1907C58.8428 60.3099 58.6031 60.5482 58.4833 60.9058C58.3635 61.2634 58.2436 61.5018 58.2436 61.8593C58.2436 62.2169 58.3635 62.5745 58.4833 62.8128C58.6031 63.1704 58.8428 63.2896 59.0825 63.528C59.3222 63.6472 59.5619 63.7664 59.9214 63.7664Z" fill="#424242"/>
<path fill-rule="evenodd" clip-rule="evenodd" d="M66.9921 59.9523H64.5953V64.6007H63.7564V58.9988H66.9921V59.9523Z" fill="#424242"/>
<path fill-rule="evenodd" clip-rule="evenodd" d="M70.3477 64.7199C69.8684 64.7199 69.389 64.6007 69.0295 64.3623C68.6699 64.1239 68.3104 63.7664 68.0707 63.2896C67.831 62.8128 67.7112 62.3361 67.7112 61.8593C67.7112 61.2634 67.831 60.7866 68.0707 60.4291C68.3104 59.9523 68.5501 59.5947 69.0295 59.3563C69.389 59.118 69.8684 58.9988 70.3477 58.9988C70.8271 58.9988 71.3065 59.118 71.666 59.3563C72.0255 59.5947 72.3851 59.9523 72.6248 60.4291C72.8644 60.9058 72.9843 61.3826 72.9843 61.8593C72.9843 62.4553 72.8644 62.932 72.6248 63.2896C72.3851 63.7664 72.1454 64.0047 71.666 64.3623C71.1866 64.6007 70.8271 64.7199 70.3477 64.7199ZM70.3477 63.7664C70.7073 63.7664 70.947 63.6472 71.1866 63.528C71.4263 63.4088 71.666 63.1704 71.7859 62.8128C71.9057 62.4553 72.0255 62.2169 72.0255 61.8593C72.0255 61.5018 71.9057 61.1442 71.7859 60.9058C71.666 60.5482 71.4263 60.4291 71.1866 60.1907C70.947 60.0715 70.5874 59.9523 70.3477 59.9523C69.9882 59.9523 69.7485 60.0715 69.5088 60.1907C69.2692 60.3099 69.0295 60.5482 68.9096 60.9058C68.7898 61.2634 68.6699 61.5018 68.6699 61.8593C68.6699 62.2169 68.7898 62.5745 68.9096 62.8128C69.0295 63.1704 69.2692 63.2896 69.5088 63.528C69.7485 63.6472 69.9882 63.7664 70.3477 63.7664Z" fill="#424242"/>
<path fill-rule="evenodd" clip-rule="evenodd" d="M78.8566 61.7402C79.0963 61.8594 79.336 61.9786 79.5756 62.2169C79.6955 62.4553 79.8153 62.6937 79.8153 63.0513C79.8153 63.4088 79.6955 63.6472 79.5756 63.8856C79.336 64.124 79.0963 64.3624 78.8566 64.4815C78.4971 64.6007 78.2574 64.7199 77.778 64.7199C77.4185 64.7199 77.1788 64.7199 76.8193 64.6007C76.4597 64.4815 76.22 64.3624 75.8605 64.124L76.1002 63.4088C76.3399 63.528 76.5796 63.6472 76.8193 63.7664C77.0589 63.8856 77.2986 63.8856 77.5383 63.8856C77.8978 63.8856 78.2574 63.7664 78.4971 63.6472C78.7367 63.528 78.8566 63.2896 78.8566 62.9321C78.8566 62.6937 78.7367 62.4553 78.6169 62.3361C78.4971 62.2169 78.2574 62.0978 77.8978 62.0978H76.8193V61.2634H77.8978C78.1375 61.2634 78.3772 61.1442 78.4971 61.025C78.6169 60.9059 78.7367 60.6675 78.7367 60.5483C78.7367 60.3099 78.6169 60.0715 78.3772 59.9523C78.1375 59.8332 77.8978 59.714 77.5383 59.714C77.2986 59.714 77.0589 59.714 76.8193 59.8332C76.5796 59.9523 76.3399 59.9523 76.22 60.1907L75.9804 59.3564C76.22 59.2372 76.4597 59.118 76.8193 58.9988C77.0589 58.8796 77.4185 58.8796 77.6582 58.8796C78.0177 58.8796 78.3772 58.9988 78.6169 59.118C78.9764 59.2372 79.2161 59.4756 79.336 59.714C79.4558 59.9523 79.5756 60.1907 79.5756 60.5483C79.5756 60.7867 79.4558 61.025 79.336 61.2634C79.336 61.3826 79.0963 61.621 78.8566 61.7402Z" fill="#424242"/>
<path fill-rule="evenodd" clip-rule="evenodd" d="M85.9273 63.7663V65.7925H85.0884V64.6006H81.3733V65.7925H80.5344V63.7663H80.7741C81.1336 63.7663 81.2534 63.5279 81.3733 63.0512C81.4931 62.5744 81.613 61.8593 81.613 60.9058V59.1179H85.2083V63.7663H85.9273ZM82.4519 60.9058C82.4519 61.6209 82.332 62.2168 82.332 62.6936C82.2122 63.1704 82.0923 63.5279 81.9725 63.7663H84.3694V59.9522H82.4519V60.9058Z" fill="#424242"/>
<path fill-rule="evenodd" clip-rule="evenodd" d="M89.2829 64.7199C88.8035 64.7199 88.3242 64.6007 87.9646 64.3623C87.6051 64.1239 87.2456 63.7664 87.0059 63.2896C86.7662 62.8128 86.6464 62.3361 86.6464 61.8593C86.6464 61.2634 86.7662 60.7866 87.0059 60.4291C87.2456 59.9523 87.4853 59.5947 87.9646 59.3563C88.3242 59.118 88.8035 58.9988 89.2829 58.9988C89.7623 58.9988 90.2416 59.118 90.6012 59.3563C90.9607 59.5947 91.3202 59.9523 91.5599 60.4291C91.7996 60.9058 91.9194 61.3826 91.9194 61.8593C91.9194 62.4553 91.7996 62.932 91.5599 63.2896C91.3202 63.7664 91.0805 64.0047 90.6012 64.3623C90.2416 64.6007 89.7623 64.7199 89.2829 64.7199ZM89.2829 63.7664C89.6424 63.7664 89.8821 63.6472 90.1218 63.528C90.3615 63.4088 90.6012 63.1704 90.721 62.8128C90.8409 62.4553 90.9607 62.2169 90.9607 61.8593C90.9607 61.5018 90.8409 61.1442 90.721 60.9058C90.6012 60.5482 90.3615 60.4291 90.1218 60.1907C89.8821 60.0715 89.5226 59.9523 89.2829 59.9523C88.9234 59.9523 88.6837 60.0715 88.444 60.1907C88.2043 60.3099 87.9646 60.5482 87.8448 60.9058C87.725 61.2634 87.6051 61.5018 87.6051 61.8593C87.6051 62.2169 87.725 62.5745 87.8448 62.8128C87.9646 63.1704 88.2043 63.2896 88.444 63.528C88.6837 63.6472 88.9234 63.7664 89.2829 63.7664Z" fill="#424242"/>
<path fill-rule="evenodd" clip-rule="evenodd" d="M95.1552 58.9988C95.5147 58.9988 95.9941 59.118 96.2338 59.2372C96.5933 59.3563 96.833 59.5947 96.9529 59.9523C97.0727 60.1907 97.1925 60.5482 97.1925 61.025C97.1925 61.3826 97.0727 61.7401 96.9529 62.0977C96.833 62.4553 96.5933 62.5745 96.2338 62.8128C95.8743 62.932 95.5147 63.0512 95.1552 63.0512H94.0766V64.6007H93.2377V58.9988H95.1552ZM95.0354 62.0977C95.3949 62.0977 95.7544 61.9785 95.8743 61.8593C96.1139 61.621 96.2338 61.3826 96.2338 61.025C96.2338 60.6674 96.1139 60.4291 95.8743 60.1907C95.6346 59.9523 95.3949 59.9523 95.0354 59.9523H93.9568V62.2169H95.0354V62.0977Z" fill="#424242"/>
<path fill-rule="evenodd" clip-rule="evenodd" d="M100.548 64.7199C100.069 64.7199 99.5894 64.6007 99.2299 64.3623C98.8703 64.1239 98.5108 63.7664 98.2711 63.2896C98.0314 62.8128 97.9116 62.3361 97.9116 61.8593C97.9116 61.2634 98.0314 60.7866 98.2711 60.4291C98.5108 59.9523 98.7505 59.5947 99.2299 59.3563C99.5894 59.118 100.069 58.9988 100.548 58.9988C101.028 58.9988 101.507 59.118 101.866 59.3563C102.226 59.5947 102.585 59.9523 102.825 60.4291C103.065 60.9058 103.185 61.3826 103.185 61.8593C103.185 62.4553 103.065 62.932 102.825 63.2896C102.585 63.7664 102.346 64.0047 101.866 64.3623C101.507 64.6007 101.028 64.7199 100.548 64.7199ZM100.548 63.7664C100.908 63.7664 101.147 63.6472 101.387 63.528C101.627 63.4088 101.866 63.1704 101.986 62.8128C102.106 62.4553 102.226 62.2169 102.226 61.8593C102.226 61.5018 102.106 61.1442 101.986 60.9058C101.866 60.5482 101.627 60.4291 101.387 60.1907C101.147 60.0715 100.788 59.9523 100.548 59.9523C100.189 59.9523 99.9489 60.0715 99.7092 60.1907C99.4695 60.3099 99.2299 60.5482 99.11 60.9058C98.9902 61.2634 98.8703 61.5018 98.8703 61.8593C98.8703 62.2169 98.9902 62.5745 99.11 62.8128C99.2299 63.1704 99.4695 63.2896 99.7092 63.528C99.9489 63.6472 100.308 63.7664 100.548 63.7664Z" fill="#424242"/>
<path fill-rule="evenodd" clip-rule="evenodd" d="M107.619 61.7401C107.978 61.8593 108.218 61.9785 108.338 62.2169C108.458 62.4553 108.578 62.6937 108.578 63.0512C108.578 63.528 108.458 63.8856 108.098 64.2431C107.739 64.4815 107.379 64.6007 106.78 64.6007H104.503V58.9988H106.66C107.259 58.9988 107.619 59.118 107.978 59.3563C108.338 59.5947 108.458 59.9523 108.458 60.4291C108.458 60.6674 108.338 61.025 108.218 61.1442C108.098 61.3826 107.859 61.6209 107.619 61.7401ZM105.342 61.3826H106.54C106.78 61.3826 107.02 61.2634 107.259 61.1442C107.379 61.025 107.499 60.7866 107.499 60.5482C107.499 60.3099 107.379 60.0715 107.259 59.9523C107.139 59.8331 106.9 59.7139 106.54 59.7139H105.342V61.3826ZM106.78 63.7664C107.379 63.7664 107.739 63.528 107.739 62.932C107.739 62.3361 107.379 62.0977 106.78 62.0977H105.342V63.7664H106.78Z" fill="#424242"/>
<path fill-rule="evenodd" clip-rule="evenodd" d="M112.053 60.9058C112.652 60.9058 113.132 61.025 113.371 61.3826C113.731 61.7401 113.851 62.0977 113.851 62.6937C113.851 63.2896 113.731 63.7664 113.371 64.1239C113.012 64.4815 112.532 64.6007 111.933 64.6007H109.896V58.9988H110.735V60.9058H112.053ZM111.933 63.7664C112.293 63.7664 112.532 63.6472 112.772 63.528C113.012 63.2896 113.012 63.0512 113.012 62.6937C113.012 61.9785 112.652 61.7401 111.933 61.7401H110.735V63.8855H111.933V63.7664Z" fill="#424242"/>
<path fill-rule="evenodd" clip-rule="evenodd" d="M118.764 58.9988V64.6007H117.925V63.0512H116.607L115.768 64.6007H114.809L115.888 62.932C115.528 62.8128 115.289 62.5745 115.169 62.2169C114.929 61.8593 114.929 61.5018 114.929 61.1442C114.929 60.6674 115.049 60.3099 115.169 60.0715C115.289 59.7139 115.528 59.4755 115.888 59.3563C116.248 59.2372 116.607 59.118 116.967 59.118H118.764V58.9988ZM116.847 59.9523C116.487 59.9523 116.248 60.0715 116.008 60.1907C115.768 60.4291 115.768 60.6674 115.768 61.025C115.768 61.3826 115.888 61.621 116.008 61.8593C116.248 62.0977 116.487 62.0977 116.847 62.0977H117.925V59.8331H116.847V59.9523Z" fill="#424242"/>
<path fill-rule="evenodd" clip-rule="evenodd" d="M130.389 32.6578L137.1 48.7484H139.018L130.988 29.4397H130.029L121.88 48.7484H123.798L130.389 32.6578ZM176.289 48.7484H177.967V29.4397H176.289V38.1405H164.185V29.4397H162.507V48.7484H164.185V39.8092H176.289V48.7484ZM155.436 48.7484H157.114V29.4397H156.155L144.291 45.1727V29.4397H142.613V48.7484H143.572L155.316 33.0154V48.7484H155.436ZM196.183 48.7484H197.861V29.4397H196.902L185.037 45.1727V29.4397H183.36V48.7484H184.318L196.063 33.0154V48.7484H196.183ZM215.118 48.7484H216.796V29.4397H210.684C205.89 29.4397 202.295 31.8235 202.295 36.2335C202.295 39.4516 204.332 41.4778 207.088 42.4313C206.13 42.9081 205.291 43.7424 204.212 45.2919L202.175 48.3908L202.295 48.7484H203.853L205.65 46.007C206.489 44.8151 207.088 44.1 207.807 43.6232C208.527 43.2657 209.246 43.1465 210.324 43.1465H214.878V48.7484H215.118ZM215.118 31.1083V41.4778H210.684C207.088 41.4778 204.092 39.9284 204.092 36.2335C204.092 32.5386 207.208 30.9892 210.684 30.9892H215.118V31.1083Z" fill="#B17B45"/>
<path fill-rule="evenodd" clip-rule="evenodd" d="M140.935 88.3193C135.303 75.3277 140.935 55.3038 166.102 54.5887C179.045 54.2311 205.291 53.9928 207.448 53.8736C237.528 53.0392 241.124 29.5589 235.251 17.044C228.66 3.09884 209.365 -8.95076e-05 196.542 9.29669C194.145 10.9653 186.955 16.4481 185.397 25.5065H183.599C185.037 15.7329 191.988 9.77345 194.145 7.74723C206.369 -3.57577 232.136 -3.45659 241.004 15.137C249.513 32.777 238.967 54.3503 215.717 58.0452C211.043 58.7603 167.78 59.3563 166.102 59.4755C144.53 60.0714 141.894 77.9499 146.088 86.8891C153.279 102.145 180.723 99.404 182.401 75.4469C182.76 70.5601 182.88 67.342 182.88 62.8128H184.198C184.198 69.1298 184.079 76.4004 182.64 81.8831C177.008 102.98 148.725 106.436 140.935 88.3193Z" fill="#B38040"/>
</g>
<defs>
<clipPath id="clip0_2911_140">
<rect width="244" height="100" fill="white"/>
</clipPath>
</defs>
</svg>
