<svg width="1381" height="865" viewBox="0 0 1381 865" fill="none" xmlns="http://www.w3.org/2000/svg">
<g opacity="0.5" filter="url(#filter0_d_2201_6926)">
<path d="M412.556 150.642C398.604 151.576 384.708 153.555 370.977 156.577C327.017 166.304 285.401 187.426 250.854 216.003C204.347 254.472 169.098 313.274 156.179 374.275C140.123 449.198 155.626 526.502 199.549 592.449C214.866 615.53 253.253 653.45 276.691 668.837C304.927 687.705 337.777 701.811 370.811 709.688C393.695 715.183 459.026 716.649 484.863 712.435C555.361 700.528 617.001 660.411 667.014 593.731C695.251 555.995 712.414 527.418 775.899 413.293C827.019 321.151 829.234 317.487 831.08 317.304C832.002 317.304 858.208 357.056 889.398 405.783C920.586 454.51 971.891 534.562 1003.45 584.022C1064.9 679.828 1071.18 687.889 1093.51 701.261C1114.92 713.901 1121.56 715 1179.51 715C1207.75 715 1231 714.451 1231 713.901C1231 713.168 1229.89 711.703 1228.42 710.604C1227.12 709.504 1174.16 626.155 1111.04 525.403C1047.74 424.651 980.196 317.121 960.818 286.346C937.565 249.342 922.247 226.811 915.05 219.483C894.011 197.501 865.037 185.228 833.294 185.044C800.444 184.861 772.577 195.486 750.985 216.735C734.191 233.222 715.92 264.18 613.495 449.381C565.512 535.845 546.318 558.56 503.134 578.527C438.209 608.551 357.93 591.716 310.759 538.208C276.506 499.317 260.266 440.643 275.583 390.395C293.3 332.325 336.485 290.926 394.803 275.904C435.072 265.683 482.427 271.691 517.566 294.186C550.065 315.014 573.263 347.658 593.047 379.954C594.08 381.657 595.132 383.361 596.147 385.065C603.898 398.071 604.267 398.254 606.482 394.041C607.774 391.842 622.907 364.731 640.255 333.956L671.628 278.084L668.306 272.955C660.186 260.315 636.379 233.387 621.984 220.747C564.995 170.719 488.056 145.568 412.556 150.642Z" fill="url(#paint0_linear_2201_6926)"/>
<path d="M782.174 466.234C780.697 468.616 765.564 495.361 748.586 525.586L717.766 580.725L746.002 624.506C784.388 684.225 801.921 701.261 835.324 712.069C843.075 714.634 852.303 715 894.565 714.634L944.578 714.084L866.144 589.518C823.144 521.007 787.157 464.219 786.418 463.486C785.496 462.754 783.65 463.853 782.174 466.234Z" fill="url(#paint1_linear_2201_6926)"/>
</g>
<defs>
<filter id="filter0_d_2201_6926" x="0" y="0" width="1381" height="865" filterUnits="userSpaceOnUse" color-interpolation-filters="sRGB">
<feFlood flood-opacity="0" result="BackgroundImageFix"/>
<feColorMatrix in="SourceAlpha" type="matrix" values="0 0 0 0 0 0 0 0 0 0 0 0 0 0 0 0 0 0 127 0" result="hardAlpha"/>
<feOffset/>
<feGaussianBlur stdDeviation="75"/>
<feComposite in2="hardAlpha" operator="out"/>
<feColorMatrix type="matrix" values="0 0 0 0 1 0 0 0 0 1 0 0 0 0 1 0 0 0 0.3 0"/>
<feBlend mode="normal" in2="BackgroundImageFix" result="effect1_dropShadow_2201_6926"/>
<feBlend mode="normal" in="SourceGraphic" in2="effect1_dropShadow_2201_6926" result="shape"/>
</filter>
<linearGradient id="paint0_linear_2201_6926" x1="-47.0005" y1="876.999" x2="992.998" y2="228.998" gradientUnits="userSpaceOnUse">
<stop stop-color="#FEFEE4"/>
<stop offset="0.34375" stop-color="#F4D2E0"/>
<stop offset="0.697917" stop-color="#D7D2F2"/>
<stop offset="1" stop-color="#B1E5FA"/>
</linearGradient>
<linearGradient id="paint1_linear_2201_6926" x1="-47.0005" y1="876.999" x2="992.998" y2="228.998" gradientUnits="userSpaceOnUse">
<stop stop-color="#FEFEE4"/>
<stop offset="0.34375" stop-color="#F4D2E0"/>
<stop offset="0.697917" stop-color="#D7D2F2"/>
<stop offset="1" stop-color="#B1E5FA"/>
</linearGradient>
</defs>
</svg>
