<svg width="340" height="91" viewBox="0 0 340 91" fill="none" xmlns="http://www.w3.org/2000/svg">
<path fill-rule="evenodd" clip-rule="evenodd" d="M7.962 69.6635L11.0403 62.115H27.7974L30.8757 69.6635C31.5009 71.197 32.9143 72.1467 34.57 72.1467H39.2301L22.6413 32.8042H22.1746C18.7163 32.8042 15.7624 34.7644 14.4185 37.9513L0 72.1467H4.26763C5.92331 72.1467 7.33675 71.197 7.962 69.6635ZM25.1636 55.6701H13.6746L19.447 41.7151L25.1636 55.6701Z" fill="#696D71"/>
<path fill-rule="evenodd" clip-rule="evenodd" d="M78.1241 72.1467V32.9165H61.2467C56.8209 32.9165 53.1659 36.32 52.8507 40.7342L52.8489 40.7626C52.1763 49.7856 50.9998 56.3984 49.8786 59.761C49.3743 61.4424 48.7016 62.7313 47.9732 63.628C47.3506 64.3662 46.8415 64.8193 46.353 65.0814C44.9104 65.8558 44.0588 67.2409 44.0185 68.8779L43.938 72.1467C51.672 73.2116 56.7722 69.5687 59.0698 46.7591L59.8545 39.3611H71.2873V68.1569C71.2873 70.3546 73.0792 72.1467 75.2769 72.1467H78.1241Z" fill="#696D71"/>
<path fill-rule="evenodd" clip-rule="evenodd" d="M97.5716 52.5314C102.559 52.5314 105.642 54.6612 105.642 58.9206C105.642 63.516 102.896 65.8137 97.4595 65.8137C97.4033 65.8137 96.1142 65.758 93.6483 65.6455V52.8118C95.3859 52.6435 96.7306 52.5314 97.5716 52.5314ZM86.7552 32.9165V72.1467C87.3716 72.1467 88.8289 72.1467 91.1265 72.2034C93.4243 72.2591 95.2738 72.2592 96.6749 72.2592C106.987 72.2592 112.928 67.1031 112.928 58.7528C112.928 50.8505 107.996 46.0868 98.1317 46.0868C96.6186 46.0868 95.1056 46.1988 93.6483 46.3671V36.9066C93.6483 34.709 91.8562 32.917 89.6587 32.917L86.7552 32.9165Z" fill="#696D71"/>
<path fill-rule="evenodd" clip-rule="evenodd" d="M143.303 68.163V67.3834C148.739 67.3267 153.111 65.9822 156.417 63.2922C159.723 60.5459 161.405 56.791 161.405 51.9715C161.405 47.2079 159.723 43.5087 156.417 40.7629C153.111 38.0166 148.739 36.6155 143.303 36.5593V32.4683H140.161C138.094 32.4683 136.409 34.1536 136.409 36.2197V36.5593C130.917 36.6151 126.546 38.0166 123.239 40.7066C119.933 43.3967 118.308 47.1516 118.308 51.9715C118.308 56.8472 119.933 60.6022 123.239 63.3481C126.546 66.038 130.917 67.3834 136.409 67.3834V72.5955H138.87C141.312 72.5955 143.303 70.6042 143.303 68.163ZM154.119 51.9715C154.119 57.9679 150.533 60.9945 143.303 61.0503V42.8923C150.42 42.949 154.119 46.5352 154.119 51.9715ZM125.593 51.9715C125.593 46.5352 129.404 42.9485 136.409 42.8923V61.0503C129.46 60.9945 125.593 57.7997 125.593 51.9715Z" fill="#696D71"/>
<path fill-rule="evenodd" clip-rule="evenodd" d="M169.815 69.6635L172.894 62.115H189.651L192.729 69.6635C193.354 71.197 194.768 72.1467 196.423 72.1467H201.083L184.495 32.8042H184.028C180.57 32.8042 177.616 34.7644 176.272 37.9513L161.853 72.1467H166.121C167.777 72.1467 169.19 71.197 169.815 69.6635ZM187.017 55.6701H175.528L181.3 41.7151L187.017 55.6701Z" fill="#696D71"/>
<path d="M243.48 37.0482C234.794 37.0482 230.342 37.0482 227.699 37.0482C225.567 37.0482 223.829 38.7868 223.829 40.917V65.3372C224.99 65.3372 226.17 65.3372 227.356 65.3372C229.486 65.3372 231.224 63.5987 231.224 61.4685V43.7154H239.953V61.4685C239.953 63.5987 241.691 65.3372 243.822 65.3372C244.997 65.3372 246.173 65.3372 247.349 65.3372V40.917C247.349 38.7868 245.611 37.0482 243.48 37.0482ZM314.168 78.7144C307.72 78.7144 301.788 76.5067 297.09 72.8051C295.169 71.2931 292.965 70.6903 290.542 71.0149C288.12 71.3404 286.153 72.502 284.699 74.4678C277.532 84.1554 266.021 90.436 253.044 90.436C231.31 90.436 213.692 72.818 213.692 51.0834C213.692 29.3488 231.31 11.7308 253.044 11.7308C266.021 11.7308 277.532 18.0122 284.699 27.6999C286.153 29.6648 288.12 30.8263 290.542 31.1518C292.966 31.4764 295.169 30.8746 297.09 29.3618C301.788 25.661 307.72 23.4532 314.168 23.4532C325.97 23.4532 336.04 30.8521 340 41.2648C339.796 41.034 339.585 40.8093 339.367 40.5915L339.352 40.5768C336.624 37.8499 332.863 36.1571 328.729 36.1571H323.101C318.975 36.1571 315.215 37.8499 312.479 40.5768L312.464 40.5925C309.737 43.3271 308.043 47.0881 308.043 51.2143C308.043 55.3413 309.737 59.1024 312.464 61.837L312.479 61.8517C315.215 64.5794 318.975 66.2722 323.101 66.2722H328.729C332.863 66.2722 336.624 64.5794 339.352 61.8517H339.367C339.518 61.7009 339.665 61.5468 339.81 61.3892C335.725 71.5444 325.785 78.7144 314.168 78.7144ZM329.495 43.8514V58.578C331.228 58.398 332.79 57.617 333.962 56.4468L333.953 56.4377C335.296 55.0953 336.131 53.244 336.131 51.212C336.131 49.1756 335.3 47.3226 333.962 45.9793C332.789 44.8109 331.227 44.0291 329.495 43.8491L329.495 43.8514ZM322.336 58.578V43.8514C320.601 44.0297 319.041 44.8098 317.876 45.9747L317.862 45.9895C316.528 47.3241 315.699 49.1727 315.699 51.2143C315.699 53.255 316.528 55.1053 317.862 56.439L317.876 56.4538C319.041 57.6196 320.601 58.3988 322.336 58.578ZM305.822 51.2341C305.822 31.6745 276.807 31.6745 276.807 51.2341C276.807 70.8333 305.822 70.8333 305.822 51.2341ZM284.244 51.2341C284.244 41.0496 298.428 41.0496 298.428 51.2341C298.428 61.4987 284.244 61.4987 284.244 51.2341ZM258.754 61.4685V58.1036H263.966C277.503 58.1036 277.503 37.0887 263.966 37.0482C261.107 37.0482 258.23 37.0482 255.388 37.0482C253.258 37.0482 251.519 38.7868 251.519 40.917C251.519 49.0746 251.519 57.2063 251.519 65.3372C252.635 65.3372 253.757 65.3372 254.886 65.3372C257.016 65.3372 258.754 63.5987 258.754 61.4685ZM263.927 51.5967H258.754C258.754 49.2941 258.754 45.8181 258.754 43.5139C260.41 43.5139 262.229 43.4737 263.927 43.5139C268.128 43.556 267.887 51.5967 263.927 51.5967ZM297.919 20.2441C303.507 20.2441 308.036 15.7159 308.036 10.1276C308.036 4.53938 303.507 0.0102539 297.919 0.0102539C292.331 0.0102539 287.802 4.53938 287.802 10.1276C287.802 15.7159 292.331 20.2441 297.919 20.2441Z" fill="url(#paint0_linear_2954_13284)"/>
<defs>
<linearGradient id="paint0_linear_2954_13284" x1="-1514.62" y1="2324.05" x2="-1514.62" y2="2233.63" gradientUnits="userSpaceOnUse">
<stop stop-color="#462A75"/>
<stop offset="1" stop-color="#966EAA"/>
</linearGradient>
</defs>
</svg>
