<svg width="294" height="66" viewBox="0 0 294 66" fill="none" xmlns="http://www.w3.org/2000/svg">
<path fill-rule="evenodd" clip-rule="evenodd" d="M234.878 65.0538C242.3 63.0481 247.515 56.7298 250.824 48.8069C249.922 48.7066 248.919 48.5061 247.916 48.0046C240.595 44.5948 241.497 29.6516 249.32 24.5368C250.824 23.5339 252.73 23.0325 254.535 22.9322C253.833 15.2099 251.426 8.39021 247.415 4.67949C234.778 -6.65324 182.828 3.5763 183.63 24.8377C183.931 33.0615 190.651 42.3884 199.476 49.9101C199.978 45.7982 200.479 41.7867 200.68 40.0817C201.482 33.8638 202.585 25.8406 202.786 23.7345C202.986 21.829 203.889 17.0151 201.181 16.5137C198.874 16.0122 196.768 18.2186 195.866 20.1241C194.161 23.6342 195.464 26.0412 195.565 27.8464C195.665 30.9554 185.235 31.7577 187.241 22.4308C189.447 11.9003 206.095 8.99194 210.107 15.5108C212.313 19.1212 210.709 27.3449 210.107 31.5571C209.906 32.9612 209.505 36.5716 209.104 40.0817C208.903 41.3855 208.502 44.4945 208.101 47.9043C207.399 53.0191 209.906 57.7327 214.52 60.1397C222.142 64.4521 229.764 66.4579 234.878 65.0538ZM252.83 43.0904C249.521 40.5832 250.223 31.0557 254.836 28.5484C254.736 33.3623 254.034 38.3768 252.83 43.0904ZM218.732 29.0499C220.136 33.5629 223.144 39.6806 227.557 41.9872C228.259 42.3884 229.162 42.589 229.764 42.9901C230.365 46.6006 222.743 52.0162 217.929 46.7008C216.926 45.5977 216.626 45.2968 215.623 43.8927C214.921 42.8898 214.419 41.6864 213.918 40.5832C212.915 38.3768 212.113 35.3681 211.611 32.8609C211.11 29.8522 211.009 30.3536 214.72 26.4423C217.829 23.1328 220.838 18.72 223.245 14.909C224.649 12.6024 230.466 13.3044 231.468 14.1067C230.365 16.4134 227.056 19.7229 225.351 21.7287C224.548 22.7316 222.944 24.5368 222.041 25.4394C221.038 26.4423 219.333 27.7461 218.732 29.0499ZM241.999 44.6951C242.199 48.5061 230.566 52.8185 231.87 42.4887C232.17 40.4829 233.976 24.236 234.277 23.8348C234.678 23.5339 234.277 23.7345 234.979 23.5339C236.483 23.2331 240.595 23.0325 241.698 23.8348C241.598 27.2447 240.795 31.5571 240.394 35.0672C240.194 36.8725 239.893 38.8783 239.692 40.6835C239.492 43.8927 240.194 43.291 241.999 44.6951ZM238.489 11.6998C244.707 10.396 246.111 18.2186 239.893 19.5224C233.474 20.8261 232.271 13.1038 238.489 11.6998Z" fill="url(#paint0_linear_2911_60)"/>
<path fill-rule="evenodd" clip-rule="evenodd" d="M252.63 6.58502C256.24 4.88009 265.065 4.17806 270.08 5.98328C265.868 6.38444 264.263 7.98907 263.661 10.396L261.656 26.8435L261.455 27.345L261.254 27.0441C259.249 22.4308 253.231 22.1299 249.42 24.6371C241.598 29.7519 240.595 44.6951 248.016 48.1049C254.836 51.3142 259.65 43.7925 259.65 43.7925C259.85 47.0017 260.753 49.0075 264.363 48.9072C266.369 48.8069 269.98 47.0017 269.779 44.6951C268.576 43.7925 267.673 43.8928 267.472 41.9873C267.272 40.0818 269.478 24.3363 270.882 13.1038C271.083 11.4992 271.985 10.1954 273.49 9.49341C274.994 8.79139 276.499 8.89168 277.903 9.79428C283.619 13.505 288.834 19.1212 292.344 26.1415C294.551 30.5542 294.45 35.0673 292.645 39.1791C292.445 37.9757 291.943 36.7722 290.84 35.5687C289.235 33.7635 283.719 29.7519 285.725 26.8435C286.628 25.5398 288.032 26.1415 289.035 25.4395C289.235 22.9322 281.714 21.7288 278.805 24.6371C275.496 27.8464 277.201 31.7577 279.708 34.7664C281.613 37.0731 286.728 40.3826 283.719 43.6922C282.416 45.0962 279.808 45.3971 278.304 44.0933C276.097 42.1878 278.003 40.2823 278.103 38.5774C276.699 36.4713 272.988 37.3739 271.484 39.1791C269.879 41.1849 270.581 44.4945 272.286 46.0991C275.596 49.509 281.714 49.7096 286.126 48.0046C278.203 55.2255 265.667 60.3403 254.435 60.7414C236.282 61.4434 227.958 56.0278 225.752 48.3055C228.259 47.2023 230.165 44.8957 229.764 42.9902C229.162 42.589 228.259 42.3884 227.557 41.9873C226.855 41.5861 226.153 41.0846 225.451 40.4829C226.554 33.4626 230.867 25.7403 236.583 19.2215C237.486 19.6227 238.589 19.723 239.893 19.4221C244.005 18.5195 244.807 14.8088 243.002 12.803C246.211 10.2957 249.42 8.08936 252.63 6.58502ZM241.999 44.6951C240.194 43.291 239.492 43.7925 239.692 40.5832C239.793 38.778 240.093 36.7722 240.394 34.967C240.795 31.4568 241.598 27.1444 241.698 23.7345C240.595 23.0325 236.583 23.1328 234.979 23.4337C234.277 23.6343 234.678 23.4337 234.277 23.7345C233.976 24.1357 232.17 40.3826 231.87 42.3884C230.566 52.8185 242.199 48.5061 241.999 44.6951ZM255.739 28.1473C249.119 30.0528 249.019 45.7983 255.939 43.3913C262.458 41.0846 262.458 26.2418 255.739 28.1473Z" fill="#EE7C00"/>
<path fill-rule="evenodd" clip-rule="evenodd" d="M243.303 60.2399C246.412 57.3315 248.919 53.3199 250.824 48.9071C249.922 48.8068 248.919 48.6063 248.016 48.1048C240.695 44.695 241.598 29.7518 249.42 24.637C250.925 23.6341 252.83 23.1327 254.635 23.0324C254.134 17.1153 252.63 11.8 250.122 7.88867C247.816 9.19244 245.409 10.8974 243.202 12.8029C245.008 14.8087 244.205 18.5194 240.093 19.422C238.689 19.7228 237.586 19.6226 236.784 19.2214C231.168 25.7402 226.755 33.4625 225.652 40.4828C226.354 41.0845 227.056 41.586 227.758 41.8869C228.46 42.288 229.362 42.4886 229.964 42.8898C230.265 44.7953 228.46 47.1019 225.953 48.2051C227.457 54.2225 232.672 58.8358 243.303 60.2399ZM252.73 43.0903C249.42 40.5831 250.122 31.0556 254.736 28.5483C254.736 33.3622 254.034 38.3767 252.73 43.0903ZM241.999 44.695C242.199 48.506 230.566 52.8184 231.87 42.4886C232.17 40.4828 233.976 24.2359 234.277 23.8347C234.678 23.5339 234.277 23.7344 234.979 23.5339C236.483 23.233 240.595 23.0324 241.698 23.8347C241.598 27.2446 240.795 31.557 240.394 35.0672C240.194 36.8724 239.893 38.8782 239.692 40.6834C239.492 43.8927 240.194 43.2909 241.999 44.695Z" fill="#E40048"/>
<path fill-rule="evenodd" clip-rule="evenodd" d="M185.837 44.0933C182.627 44.8956 181.223 51.0133 182.126 54.8243C184.232 63.9507 196.066 61.1426 193.86 52.0162C192.957 48.2052 189.046 43.291 185.837 44.0933Z" fill="#971880"/>
<path fill-rule="evenodd" clip-rule="evenodd" d="M6.81969 48.7065L9.42723 42.1876H23.7686L26.3762 48.7065C26.8776 50.0102 28.0811 50.8125 29.5854 50.8125H33.597L19.4562 17.1152H19.055C16.0463 17.1152 13.5391 18.8202 12.4359 21.528L0 50.8125H3.61043C5.11477 50.8125 6.31825 50.0102 6.81969 48.7065ZM21.5623 36.6717H11.7339L16.6481 24.7372L21.5623 36.6717Z" fill="#575656"/>
<path fill-rule="evenodd" clip-rule="evenodd" d="M66.9935 50.8128V17.2158H52.5518C48.7408 17.2158 45.6318 20.1242 45.3309 23.9352C44.7292 31.6575 43.7263 37.374 42.8237 40.1821C42.4225 41.5862 41.8208 42.6894 41.219 43.4917C40.7176 44.0934 40.2162 44.4946 39.815 44.6952C38.6115 45.3972 37.8092 46.5004 37.8092 47.9044L37.7089 50.7126C44.328 51.6152 48.7408 48.5062 50.6463 28.9497L51.3483 22.6315H61.1767V47.3027C61.1767 49.2082 62.681 50.7126 64.5865 50.7126H66.9935V50.8128Z" fill="#575656"/>
<path fill-rule="evenodd" clip-rule="evenodd" d="M83.6416 33.9639C87.954 33.9639 90.5615 35.7691 90.5615 39.4798C90.5615 43.3911 88.2549 45.3969 83.5413 45.3969C83.5413 45.3969 82.4381 45.3969 80.2317 45.2966V34.2648C81.736 34.0642 82.9395 33.9639 83.6416 33.9639ZM74.4149 17.2155V50.8125C74.9163 50.8125 76.2201 50.8125 78.1256 50.8125C80.1314 50.8125 81.6358 50.8125 82.8392 50.8125C91.6647 50.8125 96.7795 46.3998 96.7795 39.2792C96.7795 32.4595 92.5673 28.448 84.143 28.448C82.8392 28.448 81.5355 28.5483 80.332 28.6485V20.5251C80.332 18.6196 78.8276 17.1152 76.9221 17.1152H74.4149V17.2155Z" fill="#575656"/>
<path fill-rule="evenodd" clip-rule="evenodd" d="M122.855 47.403V46.701C127.468 46.701 131.279 45.4975 134.087 43.1908C136.895 40.8842 138.4 37.5746 138.4 33.4627C138.4 29.3509 136.996 26.2419 134.087 23.8349C131.279 21.5283 127.468 20.3248 122.855 20.2245V16.7144H120.147C118.342 16.7144 116.938 18.1184 116.938 19.9236V20.2245C112.224 20.2245 108.513 21.428 105.605 23.7346C102.797 26.0413 101.393 29.2506 101.393 33.3624C101.393 37.5746 102.797 40.7839 105.605 43.0905C108.413 45.3972 112.224 46.5004 116.938 46.5004V51.0134H119.044C121.15 51.214 122.855 49.5091 122.855 47.403ZM132.081 33.563C132.081 38.6778 128.972 41.2853 122.855 41.3856V25.7404C128.972 25.7404 132.081 28.8494 132.081 33.563ZM107.711 33.563C107.711 28.9497 111.021 25.8407 116.938 25.7404V41.2853C111.021 41.2853 107.711 38.4772 107.711 33.563Z" fill="#575656"/>
<path fill-rule="evenodd" clip-rule="evenodd" d="M145.621 48.7065L148.228 42.1876H162.569L165.177 48.7065C165.678 50.0102 166.882 50.8125 168.386 50.8125H172.398L158.157 17.1152H157.756C154.747 17.1152 152.24 18.8202 151.136 21.528L138.801 50.8125H142.411C143.815 50.8125 145.019 50.0102 145.621 48.7065ZM160.363 36.6717H150.535L155.449 24.7372L160.363 36.6717Z" fill="#575656"/>
<defs>
<linearGradient id="paint0_linear_2911_60" x1="166.279" y1="18.904" x2="301.504" y2="47.6292" gradientUnits="userSpaceOnUse">
<stop stop-color="#362D84"/>
<stop offset="0.61" stop-color="#E4007D"/>
<stop offset="1" stop-color="#E40047"/>
</linearGradient>
</defs>
</svg>
